<?xml version="1.0" encoding="UTF-8" standalone="no"?>
<!-- Created with Inkscape (http://www.inkscape.org/) -->

<svg
   width="512"
   height="512"
   viewBox="0 0 135.46666 135.46667"
   version="1.1"
   id="svg1"
   inkscape:version="1.4.2 (f4327f4, 2025-05-13)"
   sodipodi:docname="kometa.svg"
   inkscape:export-filename="kometa.png"
   inkscape:export-xdpi="96"
   inkscape:export-ydpi="96"
   xmlns:inkscape="http://www.inkscape.org/namespaces/inkscape"
   xmlns:sodipodi="http://sodipodi.sourceforge.net/DTD/sodipodi-0.dtd"
   xmlns="http://www.w3.org/2000/svg"
   xmlns:svg="http://www.w3.org/2000/svg">
  <sodipodi:namedview
     id="namedview1"
     pagecolor="#000000"
     bordercolor="#000000"
     borderopacity="0.25"
     inkscape:showpageshadow="2"
     inkscape:pageopacity="0.0"
     inkscape:pagecheckerboard="0"
     inkscape:deskcolor="#d1d1d1"
     inkscape:document-units="px"
     inkscape:zoom="1.0494603"
     inkscape:cx="151.98287"
     inkscape:cy="180.56899"
     inkscape:window-width="1920"
     inkscape:window-height="1051"
     inkscape:window-x="-9"
     inkscape:window-y="-9"
     inkscape:window-maximized="1"
     inkscape:current-layer="layer1"
     inkscape:export-bgcolor="#000000ff" />
  <defs
     id="defs1" />
  <g
     inkscape:label="Layer 1"
     inkscape:groupmode="layer"
     id="layer1">
    <path
       id="rect67"
       style="fill:#ffffff;fill-opacity:1;stroke:none;stroke-width:0.345448;stroke-dasharray:none;stroke-opacity:1"
       d="m 27.361606,46.259212 c -3.20309,2.519715 -4.227349,6.524318 -2.296533,8.978792 1.930815,2.454474 6.063996,2.401969 9.267086,-0.117739 l 4.580292,-3.603094 0.888566,-0.69899 c 3.20309,-2.519716 6.977345,-3.028488 8.462587,-1.140432 1.485242,1.888056 0.102494,5.436948 -3.100591,7.956663 l -0.888564,0.69899 -17.258248,13.576225 c -3.203092,2.519716 -4.227349,6.524317 -2.296533,8.978791 1.930815,2.454475 6.063995,2.40197 9.267086,-0.117739 L 51.245002,67.19444 52.133567,66.49545 c 3.20309,-2.519715 6.977346,-3.028487 8.462589,-1.140431 1.485242,1.888058 0.102053,5.43639 -3.10103,7.956105 l -0.888565,0.69899 -32.253734,25.372447 c -3.20309,2.519709 -4.227349,6.524319 -2.296533,8.978789 1.930815,2.45447 6.063995,2.40197 9.267086,-0.11775 l 32.253735,-25.372446 0.888564,-0.698991 c 3.20309,-2.519715 6.977785,-3.027929 8.463028,-1.139872 1.485241,1.888057 0.102067,5.436388 -3.10103,7.956103 l -0.888564,0.698991 -17.25825,13.576225 c -3.203091,2.51971 -4.227348,6.52432 -2.296533,8.97879 1.930815,2.45447 6.063995,2.40197 9.267087,-0.11775 l 13.97727,-10.99524 c -3.203092,2.51971 -4.227348,6.52432 -2.296533,8.97879 1.930815,2.45447 6.063556,2.40141 9.266647,-0.1183 l 3.280978,-2.58099 9.697076,-7.628219 4.82004,-3.79169 1.22611,-0.96452 c 4.698705,-3.696301 8.377975,-8.195088 10.995775,-13.144243 2.61774,-4.948938 4.1746,-10.348266 4.62764,-15.847042 0.30199,-3.665842 0.11352,-7.375982 -0.57763,-11.025869 -0.81133,-4.284386 -2.35282,-8.472636 -4.56992,-12.423139 -0.007,-0.03643 -0.01,-0.07378 -0.0177,-0.109965 -0.50412,-0.892595 -1.04449,-1.773004 -1.6218,-2.637812 l -4.4e-4,-5.58e-4 c -0.60251,-0.90249 -1.2452,-1.78874 -1.92793,-2.656635 -2.57255,-3.270262 -5.533665,-6.046845 -8.764895,-8.315289 -1.4383,-1.009739 -2.93387,-1.908855 -4.46878,-2.715993 -0.50464,-0.265389 -1.03466,-0.462083 -1.54824,-0.705404 -0.93539,-0.44316 -1.85964,-0.91675 -2.8212,-1.28629 -0.014,0.0077 -0.0275,0.01761 -0.0415,0.02543 -3.525087,-1.351694 -7.197828,-2.243562 -10.933294,-2.589171 -2.530317,-0.234106 -5.083712,-0.234299 -7.625515,0.0034 -2.04e-4,1.9e-5 -3.55e-4,4.21e-4 -5.59e-4,4.4e-4 -6.354764,0.594307 -12.638298,2.675746 -18.313525,6.308662 -1.98e-4,1.27e-4 -3.63e-4,3.14e-4 -5.58e-4,4.41e-4 -1.135078,0.72663 -2.245618,1.515018 -3.327749,2.366277 l -1.226106,0.964519 -4.820037,3.791688 -9.697077,7.62822 z" />
    <g
       id="g10"
       transform="matrix(0.62394915,0.50216257,-0.50216257,0.62394915,56.680305,-18.14931)" />
    <g
       id="g12"
       transform="matrix(0.92493487,0.74439988,-0.74439988,0.92493487,85.004361,-35.250072)" />
  </g>
</svg>
